<?xml version="1.0" encoding="UTF-8"?>
<svg id="Layer_1" data-name="Layer 1" xmlns="http://www.w3.org/2000/svg" viewBox="0 0 569.59 133.13">
  <defs>
    <style>
      .cls-1 {
        fill: #37b34a;
      }

      .cls-1, .cls-2, .cls-3 {
        stroke-width: 0px;
      }

      .cls-2 {
        fill: #000;
      }

      .cls-3 {
        fill: #231f20;
      }
    </style>
  </defs>
  <path class="cls-3" d="M346.01,37.83h11.19l26.21,37.82v-37.82h11.66v57.47h-11.22l-26.18-37.7v37.7h-11.66v-57.47Z"/>
  <path class="cls-3" d="M413.33,37.83h34.31v10.7h-22.73v10.39h22.73v10.51h-22.73v15.12h22.73v10.74h-34.31v-57.47Z"/>
  <path class="cls-3" d="M526.4,37.83h43.2v10.78h-15.83v46.68h-11.83v-46.68h-15.54v-10.78Z"/>
  <g>
    <path class="cls-3" d="M204.49,47.96l-7.64,7.28c-5.2-5.49-11.04-8.24-17.54-8.24-5.48,0-10.1,1.87-13.85,5.62-3.75,3.75-5.63,8.37-5.63,13.86,0,3.83.83,7.22,2.49,10.19s4.01,5.3,7.05,6.99c3.04,1.69,6.42,2.54,10.13,2.54,3.17,0,6.07-.59,8.69-1.78,2.62-1.18,5.51-3.34,8.65-6.46l7.4,7.73c-4.24,4.14-8.24,7.01-12.01,8.6-3.77,1.6-8.08,2.4-12.91,2.4-8.92,0-16.22-2.83-21.9-8.48-5.68-5.66-8.52-12.9-8.52-21.75,0-5.72,1.29-10.8,3.88-15.25s6.29-8.02,11.12-10.73c4.82-2.7,10.02-4.06,15.58-4.06,4.73,0,9.29,1,13.67,3,4.38,2,8.16,4.84,11.33,8.53Z"/>
    <path class="cls-3" d="M518.03,47.96l-7.64,7.28c-5.2-5.49-11.04-8.24-17.54-8.24-5.48,0-10.1,1.87-13.85,5.62-3.75,3.75-5.63,8.37-5.63,13.86,0,3.83.83,7.22,2.49,10.19s4.01,5.3,7.05,6.99c3.04,1.69,6.42,2.54,10.13,2.54,3.17,0,6.07-.59,8.69-1.78,2.62-1.18,5.51-3.34,8.65-6.46l7.4,7.73c-4.24,4.14-8.24,7.01-12.01,8.6-3.77,1.6-8.08,2.4-12.91,2.4-8.92,0-16.22-2.83-21.9-8.48-5.68-5.66-9.52-12.9-9.52-21.75,0-5.72,1.29-10.8,3.88-15.25s7.29-8.02,12.12-10.73c4.82-2.7,10.02-4.06,15.58-4.06,4.73,0,9.29,1,13.67,3,4.38,2,8.16,4.84,11.33,8.53Z"/>
    <path class="cls-3" d="M239.54,36.44c8.12,0,15.1,2.94,20.94,8.81,5.84,5.88,8.76,13.04,8.76,21.49s-2.88,15.46-8.64,21.26c-5.76,5.8-12.76,8.7-20.98,8.7s-15.77-2.98-21.47-8.93c-5.7-5.95-8.55-13.03-8.55-21.22,0-5.49,1.33-10.53,3.98-15.13s6.3-8.25,10.95-10.94c4.64-2.69,9.65-4.04,15.01-4.04ZM239.42,47.12c-5.31,0-9.77,1.85-13.39,5.54-3.62,3.69-5.43,8.39-5.43,14.08,0,6.35,2.28,11.36,6.83,15.06,3.54,2.89,7.6,4.33,12.18,4.33,5.18,0,9.59-1.87,13.23-5.62,3.64-3.74,5.47-8.36,5.47-13.85s-1.83-10.08-5.5-13.87c-3.67-3.78-8.13-5.68-13.39-5.68Z"/>
    <path class="cls-3" d="M280.97,37.88h10.47l24.55,37.76v-37.76h10.92v57.37h-10.51l-24.52-37.64v37.64h-10.92v-57.37Z"/>
  </g>
  <g>
    <path class="cls-2" d="M.04,66.53c0-8.69-.08-17.37.03-26.06.07-5.51,2.41-9.86,7.28-12.69C22.07,19.22,36.77,10.61,51.52,2.11c4.69-2.7,9.65-2.85,14.36-.17,15.15,8.65,30.25,17.39,45.31,26.22,4.55,2.67,6.73,7.05,6.76,12.21.12,17.48.13,34.96,0,52.43-.04,5.33-2.42,9.67-7.18,12.44-14.9,8.66-29.79,17.35-44.74,25.94-4.5,2.58-9.32,2.61-13.78.07-15.3-8.71-30.53-17.54-45.7-26.48-4.31-2.54-6.38-6.77-6.46-11.71-.15-8.84-.04-17.69-.04-26.53ZM11.93,66.35c0,6.12-.03,12.25.01,18.37.04,5.4,2.43,9.73,6.97,12.42,11.05,6.56,22.22,12.91,33.44,19.16,4.44,2.48,9.22,2.39,13.65-.11,11.06-6.23,22.09-12.53,33.01-19.01,4.55-2.7,7-7.01,7.03-12.39.07-12.19.08-24.39,0-36.58-.04-5.31-2.48-9.61-6.97-12.26-11.1-6.57-22.31-12.96-33.59-19.23-4.27-2.37-8.97-2.37-13.24.02-11.22,6.27-22.37,12.66-33.41,19.23-4.43,2.64-6.8,6.89-6.87,12.15-.08,6.07-.02,12.14-.02,18.21Z"/>
    <path class="cls-1" d="M95.65,63.57h-36.63v14.41l20.7-.14-20.61,11.88-19.8-11.55v-23.38l19.49-11.19,19.17,11.05,15.87-10.14c-5.12-3.06-22.59-13.5-30.57-18.06-2.92-1.67-6-1.58-8.92.1-9.16,5.28-18.29,10.62-27.43,15.94-3.02,1.76-4.48,4.46-4.52,7.88-.07,5.39-.09,27.16,0,32.65.05,3.06,1.33,5.69,4.01,7.27,9.42,5.55,18.87,11.03,28.37,16.44,2.77,1.58,5.77,1.56,8.56-.04,9.28-5.33,18.52-10.73,27.78-16.1,2.96-1.72,4.43-4.42,4.46-7.73.01-1.55.02-3.21.03-4.88h.02v-14.41Z"/>
  </g>
</svg>